<svg width="24" height="24" viewBox="0 0 24 24" fill="none" xmlns="http://www.w3.org/2000/svg">
<path fill-rule="evenodd" clip-rule="evenodd" d="M3 4C3 3.73478 2.89464 3.48043 2.70711 3.29289C2.51957 3.10536 2.26522 3 2 3C1.73478 3 1.48043 3.10536 1.29289 3.29289C1.10536 3.48043 1 3.73478 1 4V20C1 20.2652 1.10536 20.5196 1.29289 20.7071C1.48043 20.8946 1.73478 21 2 21C2.26522 21 2.51957 20.8946 2.70711 20.7071C2.89464 20.5196 3 20.2652 3 20V18H21V20C21 20.2652 21.1054 20.5196 21.2929 20.7071C21.4804 20.8946 21.7348 21 22 21C22.2652 21 22.5196 20.8946 22.7071 20.7071C22.8946 20.5196 23 20.2652 23 20V11C23 10.3434 22.8707 9.69321 22.6194 9.08658C22.3681 8.47996 21.9998 7.92876 21.5355 7.46447C21.0712 7.00017 20.52 6.63188 19.9134 6.3806C19.3068 6.12933 18.6566 6 18 6H12C11.7348 6 11.4804 6.10536 11.2929 6.29289C11.1054 6.48043 11 6.73478 11 7V9.5C11 8.80777 10.7947 8.13108 10.4101 7.5555C10.0256 6.97993 9.47893 6.53133 8.83939 6.26642C8.19985 6.00152 7.49612 5.9322 6.81718 6.06725C6.13825 6.2023 5.51461 6.53564 5.02513 7.02513C4.53564 7.51461 4.2023 8.13825 4.06725 8.81718C3.9322 9.49612 4.00152 10.1999 4.26642 10.8394C4.53133 11.4789 4.97993 12.0256 5.5555 12.4101C6.13108 12.7947 6.80777 13 7.5 13H3V4ZM7.5 13C8.42826 13 9.3185 12.6313 9.97487 11.9749C10.6313 11.3185 11 10.4283 11 9.5V13H7.5ZM21 15V16H3V15H21ZM21 11V13H13V8H18C18.7956 8 19.5587 8.31607 20.1213 8.87868C20.6839 9.44129 21 10.2044 21 11ZM6 9.5C6 9.10218 6.15804 8.72064 6.43934 8.43934C6.72064 8.15804 7.10218 8 7.5 8C7.89782 8 8.27936 8.15804 8.56066 8.43934C8.84196 8.72064 9 9.10218 9 9.5C9 9.89782 8.84196 10.2794 8.56066 10.5607C8.27936 10.842 7.89782 11 7.5 11C7.10218 11 6.72064 10.842 6.43934 10.5607C6.15804 10.2794 6 9.89782 6 9.5Z" fill="#A8614D"/>
</svg>
