<svg width="24" height="24" viewBox="0 0 24 24" fill="none" xmlns="http://www.w3.org/2000/svg">
<path fill-rule="evenodd" clip-rule="evenodd" d="M5.21996 4.375C5.31358 4.25806 5.43228 4.16365 5.56729 4.09875C5.70229 4.03384 5.85016 4.00009 5.99996 4H18C18.1498 4.00009 18.2976 4.03384 18.4326 4.09875C18.5676 4.16365 18.6863 4.25806 18.78 4.375L22.78 9.375C22.9289 9.56071 23.0067 9.79345 22.9993 10.0314C22.992 10.2693 22.9 10.4968 22.74 10.673L12.74 21.673C12.6462 21.7761 12.532 21.8585 12.4046 21.9149C12.2771 21.9713 12.1393 22.0004 12 22.0004C11.8606 22.0004 11.7228 21.9713 11.5954 21.9149C11.4679 21.8585 11.3537 21.7761 11.26 21.673L1.25996 10.673C1.09989 10.4968 1.00793 10.2693 1.0006 10.0314C0.993265 9.79345 1.07105 9.56071 1.21996 9.375L5.21996 4.375ZM6.47996 6L4.07996 9H7.51996L9.91996 6H6.47996ZM12 6.6L10.08 9H13.92L12 6.6ZM14.572 11H9.42796L12 18.074L14.572 11ZM9.32596 16.572L7.29996 11H4.25996L9.32596 16.572ZM14.674 16.572L16.7 11H19.74L14.674 16.572ZM19.92 9H16.482L14.082 6H17.52L19.92 9Z" fill="#A8614D"/>
</svg>
