<svg width="24" height="24" viewBox="0 0 24 24" fill="none" xmlns="http://www.w3.org/2000/svg">
<path fill-rule="evenodd" clip-rule="evenodd" d="M12 3C10.6167 2.9997 9.25189 3.31829 8.01166 3.93101C6.77143 4.54374 5.68913 5.43411 4.84883 6.53297C4.00853 7.63183 3.43284 8.90961 3.16648 10.2671C2.90012 11.6245 2.95026 13.0251 3.313 14.36C3.73644 14.0456 4.19482 13.7811 4.679 13.572C4.29603 13.0505 4.06511 12.4331 4.01187 11.7883C3.95863 11.1435 4.08517 10.4965 4.37742 9.91931C4.66968 9.34208 5.11622 8.85716 5.66744 8.5184C6.21866 8.17964 6.853 8.0003 7.5 8.0003C8.147 8.0003 8.78134 8.17964 9.33256 8.5184C9.88378 8.85716 10.3303 9.34208 10.6226 9.91931C10.9148 10.4965 11.0414 11.1435 10.9881 11.7883C10.9349 12.4331 10.704 13.0505 10.321 13.572C10.779 13.7699 11.2139 14.0174 11.618 14.31C12.0361 13.8628 12.5099 13.4712 13.028 13.145C12.4176 12.6652 11.96 12.0181 11.7111 11.2826C11.4621 10.5472 11.4326 9.75516 11.6262 9.00323C11.8197 8.2513 12.2279 7.57194 12.8009 7.04805C13.374 6.52415 14.0871 6.17835 14.8533 6.05284C15.6196 5.92733 16.4058 6.02754 17.116 6.34123C17.8262 6.65492 18.4298 7.16854 18.8532 7.81944C19.2765 8.47033 19.5012 9.23035 19.4999 10.0068C19.4987 10.7832 19.2714 11.5425 18.846 12.192C19.619 12.367 20.321 12.652 20.943 13.016C21.0861 11.7564 20.9615 10.4808 20.5774 9.27277C20.1932 8.0647 19.5582 6.9514 18.7139 6.00581C17.8696 5.06021 16.8351 4.30363 15.6781 3.78564C14.5211 3.26765 13.2677 2.99993 12 3ZM10.49 15.957C10.466 15.9426 10.4427 15.9273 10.42 15.911C9.657 15.368 8.678 15 7.5 15C6.062 15 4.91 15.55 4.095 16.306C4.92398 17.8258 6.1735 19.0743 7.6939 19.9021C9.21429 20.73 10.9411 21.1019 12.6675 20.9735C14.3939 20.8451 16.0466 20.2217 17.4278 19.1781C18.809 18.1344 19.86 16.7147 20.455 15.089C20.438 15.0778 20.4213 15.0662 20.405 15.054C19.569 14.434 18.455 14 17.091 14C13.784 14 12 16.529 12 18C12 18.2652 11.8946 18.5196 11.7071 18.7071C11.5196 18.8946 11.2652 19 11 19C10.7348 19 10.4804 18.8946 10.2929 18.7071C10.1054 18.5196 10 18.2652 10 18C10 17.338 10.17 16.638 10.49 15.957ZM1 12C1 5.925 5.925 1 12 1C18.075 1 23 5.925 23 12C23 18.075 18.075 23 12 23C5.925 23 1 18.075 1 12ZM15.5 8C14.9696 8 14.4609 8.21071 14.0858 8.58579C13.7107 8.96086 13.5 9.46957 13.5 10C13.5 10.5304 13.7107 11.0391 14.0858 11.4142C14.4609 11.7893 14.9696 12 15.5 12C16.0304 12 16.5391 11.7893 16.9142 11.4142C17.2893 11.0391 17.5 10.5304 17.5 10C17.5 9.46957 17.2893 8.96086 16.9142 8.58579C16.5391 8.21071 16.0304 8 15.5 8ZM6 11.5C6 11.1022 6.15804 10.7206 6.43934 10.4393C6.72064 10.158 7.10218 10 7.5 10C7.89782 10 8.27936 10.158 8.56066 10.4393C8.84196 10.7206 9 11.1022 9 11.5C9 11.8978 8.84196 12.2794 8.56066 12.5607C8.27936 12.842 7.89782 13 7.5 13C7.10218 13 6.72064 12.842 6.43934 12.5607C6.15804 12.2794 6 11.8978 6 11.5Z" fill="#A8614D"/>
</svg>
