<svg width="48" height="96" viewBox="0 0 48 96" fill="none" xmlns="http://www.w3.org/2000/svg">
<path fill-rule="evenodd" clip-rule="evenodd" d="M20.293 16.293C20.4806 16.1056 20.7349 16.0002 21 16.0002C21.2652 16.0002 21.5195 16.1056 21.707 16.293L28.707 23.293C28.8945 23.4806 28.9998 23.7349 28.9998 24C28.9998 24.2652 28.8945 24.5195 28.707 24.707L21.707 31.707C21.5184 31.8892 21.2658 31.99 21.0036 31.9877C20.7414 31.9854 20.4906 31.8803 20.3052 31.6948C20.1198 31.5094 20.0146 31.2586 20.0124 30.9964C20.0101 30.7342 20.1109 30.4816 20.293 30.293L26.586 24L20.293 17.707C20.1056 17.5195 20.0002 17.2652 20.0002 17C20.0002 16.7349 20.1056 16.4806 20.293 16.293V16.293Z" fill="#794030"/>
<path fill-rule="evenodd" clip-rule="evenodd" d="M20.293 64.293C20.4806 64.1056 20.7349 64.0002 21 64.0002C21.2652 64.0002 21.5195 64.1056 21.707 64.293L28.707 71.293C28.8945 71.4806 28.9998 71.7349 28.9998 72C28.9998 72.2652 28.8945 72.5195 28.707 72.707L21.707 79.707C21.5184 79.8892 21.2658 79.99 21.0036 79.9877C20.7414 79.9854 20.4906 79.8803 20.3052 79.6948C20.1198 79.5094 20.0146 79.2586 20.0124 78.9964C20.0101 78.7342 20.1109 78.4816 20.293 78.293L26.586 72L20.293 65.707C20.1056 65.5195 20.0002 65.2652 20.0002 65C20.0002 64.7349 20.1056 64.4806 20.293 64.293V64.293Z" fill="#A8614D"/>
</svg>
