<svg width="24" height="24" viewBox="0 0 24 24" fill="none" xmlns="http://www.w3.org/2000/svg">
<path fill-rule="evenodd" clip-rule="evenodd" d="M4.99994 3C5.26516 3 5.51951 3.10536 5.70705 3.29289C5.89459 3.48043 5.99994 3.73478 5.99994 4V7.05C6.56509 7.16476 7.07318 7.47136 7.43813 7.91787C7.80308 8.36438 8.00245 8.92332 8.00245 9.5C8.00245 10.0767 7.80308 10.6356 7.43813 11.0821C7.07318 11.5286 6.56509 11.8352 5.99994 11.95V20C5.99994 20.2652 5.89459 20.5196 5.70705 20.7071C5.51951 20.8946 5.26516 21 4.99994 21C4.73473 21 4.48037 20.8946 4.29284 20.7071C4.1053 20.5196 3.99994 20.2652 3.99994 20V11.95C3.4348 11.8352 2.92671 11.5286 2.56175 11.0821C2.1968 10.6356 1.99744 10.0767 1.99744 9.5C1.99744 8.92332 2.1968 8.36438 2.56175 7.91787C2.92671 7.47136 3.4348 7.16476 3.99994 7.05V4C3.99994 3.73478 4.1053 3.48043 4.29284 3.29289C4.48037 3.10536 4.73473 3 4.99994 3ZM4.49994 9C4.36733 9 4.24016 9.05268 4.14639 9.14645C4.05262 9.24021 3.99994 9.36739 3.99994 9.5C3.99994 9.63261 4.05262 9.75979 4.14639 9.85355C4.24016 9.94732 4.36733 10 4.49994 10H5.49994C5.63255 10 5.75973 9.94732 5.8535 9.85355C5.94726 9.75979 5.99994 9.63261 5.99994 9.5C5.99994 9.36739 5.94726 9.24021 5.8535 9.14645C5.75973 9.05268 5.63255 9 5.49994 9H4.49994ZM18.9999 3C19.2652 3 19.5195 3.10536 19.7071 3.29289C19.8946 3.48043 19.9999 3.73478 19.9999 4V7.05C20.5651 7.16476 21.0732 7.47136 21.4381 7.91787C21.8031 8.36438 22.0024 8.92332 22.0024 9.5C22.0024 10.0767 21.8031 10.6356 21.4381 11.0821C21.0732 11.5286 20.5651 11.8352 19.9999 11.95V20C19.9999 20.2652 19.8946 20.5196 19.7071 20.7071C19.5195 20.8946 19.2652 21 18.9999 21C18.7347 21 18.4804 20.8946 18.2928 20.7071C18.1053 20.5196 17.9999 20.2652 17.9999 20V11.95C17.4348 11.8352 16.9267 11.5286 16.5618 11.0821C16.1968 10.6356 15.9974 10.0767 15.9974 9.5C15.9974 8.92332 16.1968 8.36438 16.5618 7.91787C16.9267 7.47136 17.4348 7.16476 17.9999 7.05V4C17.9999 3.73478 18.1053 3.48043 18.2928 3.29289C18.4804 3.10536 18.7347 3 18.9999 3ZM18.4999 9C18.3673 9 18.2402 9.05268 18.1464 9.14645C18.0526 9.24021 17.9999 9.36739 17.9999 9.5C17.9999 9.63261 18.0526 9.75979 18.1464 9.85355C18.2402 9.94732 18.3673 10 18.4999 10H19.4999C19.6326 10 19.7597 9.94732 19.8535 9.85355C19.9473 9.75979 19.9999 9.63261 19.9999 9.5C19.9999 9.36739 19.9473 9.24021 19.8535 9.14645C19.7597 9.05268 19.6326 9 19.4999 9H18.4999ZM12.9999 4C12.9999 3.73478 12.8946 3.48043 12.707 3.29289C12.5195 3.10536 12.2652 3 11.9999 3C11.7347 3 11.4804 3.10536 11.2928 3.29289C11.1053 3.48043 10.9999 3.73478 10.9999 4V12.05C10.4348 12.1648 9.92671 12.4714 9.56175 12.9179C9.1968 13.3644 8.99744 13.9233 8.99744 14.5C8.99744 15.0767 9.1968 15.6356 9.56175 16.0821C9.92671 16.5286 10.4348 16.8352 10.9999 16.95V20C10.9999 20.2652 11.1053 20.5196 11.2928 20.7071C11.4804 20.8946 11.7347 21 11.9999 21C12.2652 21 12.5195 20.8946 12.707 20.7071C12.8946 20.5196 12.9999 20.2652 12.9999 20V16.95C13.5651 16.8352 14.0732 16.5286 14.4381 16.0821C14.8031 15.6356 15.0024 15.0767 15.0024 14.5C15.0024 13.9233 14.8031 13.3644 14.4381 12.9179C14.0732 12.4714 13.5651 12.1648 12.9999 12.05V4ZM10.9999 14.5C10.9999 14.3674 11.0526 14.2402 11.1464 14.1464C11.2402 14.0527 11.3673 14 11.4999 14H12.4999C12.6326 14 12.7597 14.0527 12.8535 14.1464C12.9473 14.2402 12.9999 14.3674 12.9999 14.5C12.9999 14.6326 12.9473 14.7598 12.8535 14.8536C12.7597 14.9473 12.6326 15 12.4999 15H11.4999C11.3673 15 11.2402 14.9473 11.1464 14.8536C11.0526 14.7598 10.9999 14.6326 10.9999 14.5Z" fill="#A8614D"/>
</svg>
