<svg width="24" height="24" viewBox="0 0 24 24" fill="none" xmlns="http://www.w3.org/2000/svg">
<path fill-rule="evenodd" clip-rule="evenodd" d="M5 8.99999V7.99999C5 7.73477 5.10536 7.48042 5.29289 7.29288C5.48043 7.10535 5.73478 6.99999 6 6.99999H10C10.2652 6.99999 10.5196 7.10535 10.7071 7.29288C10.8946 7.48042 11 7.73477 11 7.99999V9.99999H6C5.73478 9.99999 5.48043 9.89463 5.29289 9.7071C5.10536 9.51956 5 9.26521 5 8.99999ZM12 12H6C5.65 12 5.313 11.94 5 11.83V18.884C5 19.554 5.5 20 6 20H18C18.5 20 19 19.554 19 18.884V11.829C18.687 11.939 18.35 12 18 12H12ZM13 9.99999H18C18.2652 9.99999 18.5196 9.89463 18.7071 9.7071C18.8946 9.51956 19 9.26521 19 8.99999V7.99999C19 7.73477 18.8946 7.48042 18.7071 7.29288C18.5196 7.10535 18.2652 6.99999 18 6.99999H14C13.7348 6.99999 13.4804 7.10535 13.2929 7.29288C13.1054 7.48042 13 7.73477 13 7.99999V9.99999ZM18.445 5.03299C18.2977 5.01105 18.1489 5.00002 18 4.99999H14C13.232 4.99999 12.53 5.28899 12 5.76399C11.4505 5.27111 10.7381 4.99897 10 4.99999H6C5.849 4.99999 5.7 5.01099 5.555 5.03299C5.804 4.71699 6.154 4.48799 6.655 4.32499C7.241 4.13299 7.989 4.04499 8.919 4.01499C9.545 3.99399 10.199 3.99899 10.907 4.00499C11.257 4.00799 11.621 4.01099 12 4.01099C12.379 4.01099 12.742 4.00799 13.093 4.00499C13.8 3.99899 14.455 3.99399 15.081 4.01499C16.011 4.04499 16.759 4.13299 17.346 4.32499C17.846 4.48799 18.196 4.71699 18.445 5.03299ZM21 7.99999V18.884C21 20.55 19.71 22 18 22H17V23C17 23.2652 16.8946 23.5196 16.7071 23.7071C16.5196 23.8946 16.2652 24 16 24C15.7348 24 15.4804 23.8946 15.2929 23.7071C15.1054 23.5196 15 23.2652 15 23V22H9V23C9 23.2652 8.89464 23.5196 8.70711 23.7071C8.51957 23.8946 8.26522 24 8 24C7.73478 24 7.48043 23.8946 7.29289 23.7071C7.10536 23.5196 7 23.2652 7 23V22H6C4.29 22 3 20.55 3 18.884V7.24399C3 5.95599 3.246 4.89399 3.793 4.06099C4.351 3.21099 5.149 2.71299 6.033 2.42399C6.893 2.14199 7.868 2.04799 8.853 2.01599C9.56086 1.9985 10.269 1.99517 10.977 2.00599C11.319 2.00799 11.661 2.01099 12 2.01099C12.339 2.01099 12.681 2.00799 13.023 2.00599C13.731 1.99517 14.4391 1.9985 15.147 2.01599C16.132 2.04799 17.107 2.14199 17.967 2.42399C18.851 2.71299 19.649 3.21199 20.207 4.06099C20.754 4.89399 21 5.95599 21 7.24399V7.99999ZM12 14.5C11.6022 14.5 11.2206 14.658 10.9393 14.9393C10.658 15.2206 10.5 15.6022 10.5 16C10.5 16.3978 10.658 16.7793 10.9393 17.0606C11.2206 17.342 11.6022 17.5 12 17.5C12.3978 17.5 12.7794 17.342 13.0607 17.0606C13.342 16.7793 13.5 16.3978 13.5 16C13.5 15.6022 13.342 15.2206 13.0607 14.9393C12.7794 14.658 12.3978 14.5 12 14.5Z" fill="#A8614D"/>
</svg>
