<svg width="24" height="48" viewBox="0 0 24 48" fill="none" xmlns="http://www.w3.org/2000/svg">
<path fill-rule="evenodd" clip-rule="evenodd" d="M7.84499 4.77499C10.437 4.40799 13.563 4.40799 16.155 4.77499C18.51 5.10899 20.335 6.76099 20.683 8.54099C21.106 10.696 21.106 13.304 20.683 15.459C20.334 17.239 18.51 18.891 16.155 19.225C13.563 19.592 10.436 19.592 7.84499 19.225C5.48999 18.891 3.66599 17.239 3.31699 15.459C2.89399 13.304 2.89399 10.696 3.31699 8.54099C3.66599 6.76099 5.48999 5.10899 7.84499 4.77499V4.77499ZM16.435 2.79499C13.658 2.40199 10.342 2.40199 7.56499 2.79499C4.54999 3.22199 1.89999 5.37299 1.35499 8.15699C0.881994 10.566 0.881994 13.434 1.35499 15.843C1.89999 18.627 4.54999 20.778 7.56499 21.205C10.342 21.598 13.658 21.598 16.435 21.205C19.45 20.778 22.1 18.627 22.645 15.843C23.118 13.434 23.118 10.566 22.645 8.15699C22.1 5.37299 19.45 3.22199 16.435 2.79499V2.79499ZM10.555 7.16799C10.4044 7.06752 10.2293 7.00981 10.0485 7.00102C9.86768 6.99224 9.68786 7.03271 9.52823 7.11812C9.3686 7.20353 9.23515 7.33067 9.14212 7.48599C9.04909 7.6413 8.99997 7.81895 8.99999 7.99999V16C8.99997 16.181 9.04909 16.3587 9.14212 16.514C9.23515 16.6693 9.3686 16.7965 9.52823 16.8819C9.68786 16.9673 9.86768 17.0077 10.0485 16.999C10.2293 16.9902 10.4044 16.9325 10.555 16.832L16.555 12.832C16.692 12.7407 16.8042 12.617 16.8819 12.4718C16.9596 12.3267 17.0002 12.1646 17.0002 12C17.0002 11.8354 16.9596 11.6733 16.8819 11.5282C16.8042 11.383 16.692 11.2593 16.555 11.168L10.555 7.16799ZM14.197 12L11 14.132V9.86899L14.197 12Z" fill="#50ACAF"/>
<path fill-rule="evenodd" clip-rule="evenodd" d="M7.84499 28.7738C10.437 28.4068 13.563 28.4068 16.155 28.7738C18.51 29.1078 20.335 30.7598 20.683 32.5398C21.106 34.6948 21.106 37.3028 20.683 39.4578C20.334 41.2378 18.51 42.8898 16.155 43.2238C13.563 43.5908 10.436 43.5908 7.84499 43.2238C5.48999 42.8898 3.66599 41.2378 3.31699 39.4578C2.89399 37.3028 2.89399 34.6948 3.31699 32.5398C3.66599 30.7598 5.48999 29.1078 7.84499 28.7738V28.7738ZM16.435 26.7938C13.658 26.4008 10.342 26.4008 7.56499 26.7938C4.54999 27.2208 1.89999 29.3718 1.35499 32.1558C0.881994 34.5648 0.881994 37.4328 1.35499 39.8418C1.89999 42.6258 4.54999 44.7768 7.56499 45.2038C10.342 45.5968 13.658 45.5968 16.435 45.2038C19.45 44.7768 22.1 42.6258 22.645 39.8418C23.118 37.4328 23.118 34.5648 22.645 32.1558C22.1 29.3718 19.45 27.2208 16.435 26.7938V26.7938ZM10.555 31.1668C10.4044 31.0664 10.2293 31.0086 10.0485 30.9999C9.86768 30.9911 9.68786 31.0316 9.52823 31.117C9.3686 31.2024 9.23515 31.3295 9.14212 31.4848C9.04909 31.6401 8.99997 31.8178 8.99999 31.9988V39.9988C8.99997 40.1799 9.04909 40.3575 9.14212 40.5128C9.23515 40.6682 9.3686 40.7953 9.52823 40.8807C9.68786 40.9661 9.86768 41.0066 10.0485 40.9978C10.2293 40.989 10.4044 40.9313 10.555 40.8308L16.555 36.8308C16.692 36.7395 16.8042 36.6158 16.8819 36.4707C16.9596 36.3255 17.0002 36.1634 17.0002 35.9988C17.0002 35.8342 16.9596 35.6722 16.8819 35.527C16.8042 35.3819 16.692 35.2582 16.555 35.1668L10.555 31.1668ZM14.197 35.9988L11 38.1308V33.8678L14.197 35.9988Z" fill="#2D658C"/>
</svg>
