<svg width="24" height="24" viewBox="0 0 24 24" fill="none" xmlns="http://www.w3.org/2000/svg">
<path fill-rule="evenodd" clip-rule="evenodd" d="M13 3.5C13 3.23478 12.8946 2.98043 12.7071 2.79289C12.5196 2.60536 12.2652 2.5 12 2.5C11.7348 2.5 11.4804 2.60536 11.2929 2.79289C11.1054 2.98043 11 3.23478 11 3.5V4.06C9.83 4.2 8.753 4.585 7.896 5.177C6.796 5.937 6 7.09 6 8.5C6 9.774 6.492 10.957 7.578 11.793C8.434 12.452 9.588 12.839 11 12.959V17.922C10.216 17.796 9.54 17.528 9.033 17.177C8.323 16.687 8 16.09 8 15.5C8 15.2348 7.89464 14.9804 7.70711 14.7929C7.51957 14.6054 7.26522 14.5 7 14.5C6.73478 14.5 6.48043 14.6054 6.29289 14.7929C6.10536 14.9804 6 15.2348 6 15.5C6 16.91 6.796 18.063 7.896 18.823C8.753 19.415 9.83 19.801 11 19.941V20.5C11 20.7652 11.1054 21.0196 11.2929 21.2071C11.4804 21.3946 11.7348 21.5 12 21.5C12.2652 21.5 12.5196 21.3946 12.7071 21.2071C12.8946 21.0196 13 20.7652 13 20.5V19.944C14.162 19.81 15.238 19.442 16.097 18.859C17.212 18.1 18 16.944 18 15.5C18 14.193 17.514 13.002 16.416 12.171C15.557 11.521 14.404 11.153 13 11.039V6.079C13.784 6.204 14.46 6.472 14.967 6.823C15.677 7.313 16 7.91 16 8.5C16 8.76522 16.1054 9.01957 16.2929 9.20711C16.4804 9.39464 16.7348 9.5 17 9.5C17.2652 9.5 17.5196 9.39464 17.7071 9.20711C17.8946 9.01957 18 8.76522 18 8.5C18 7.09 17.204 5.937 16.104 5.177C15.247 4.585 14.17 4.2 13 4.06V3.5ZM11 6.078C10.216 6.204 9.54 6.472 9.033 6.823C8.323 7.313 8 7.91 8 8.5C8 9.226 8.258 9.793 8.797 10.207C9.243 10.55 9.947 10.838 11 10.95V6.078ZM13 13.047V17.927C13.791 17.807 14.468 17.547 14.974 17.204C15.668 16.732 16 16.14 16 15.5C16 14.723 15.736 14.164 15.21 13.766C14.766 13.431 14.062 13.154 13 13.047Z" fill="#A8614D"/>
</svg>
