<svg width="24" height="24" viewBox="0 0 24 24" fill="none" xmlns="http://www.w3.org/2000/svg">
<path fill-rule="evenodd" clip-rule="evenodd" d="M11.31 1.77601C11.496 1.59872 11.7431 1.49982 12 1.49982C12.257 1.49982 12.504 1.59872 12.69 1.77601L20.69 9.39501L23.19 11.775C23.3823 11.958 23.494 12.2099 23.5006 12.4753C23.5071 12.7406 23.408 12.9977 23.225 13.19C23.042 13.3823 22.7901 13.494 22.5248 13.5006C22.2594 13.5071 22.0023 13.408 21.81 13.225L21 12.452V20C21 20.5304 20.7893 21.0391 20.4142 21.4142C20.0392 21.7893 19.5305 22 19 22H5.00002C4.46958 22 3.96088 21.7893 3.5858 21.4142C3.21073 21.0391 3.00002 20.5304 3.00002 20V12.452L2.19002 13.224C1.998 13.407 1.74115 13.5062 1.47597 13.4999C1.2108 13.4935 0.959016 13.382 0.776016 13.19C0.593017 12.998 0.493791 12.7411 0.500167 12.476C0.506544 12.2108 0.618 11.959 0.810016 11.776L3.31002 9.39501L11.31 1.77501V1.77601ZM5.00002 10.548V20H9.00002V15C9.00002 14.2044 9.31609 13.4413 9.8787 12.8787C10.4413 12.3161 11.2044 12 12 12C12.7957 12 13.5587 12.3161 14.1213 12.8787C14.6839 13.4413 15 14.2044 15 15V20H19V10.548L12 3.88001L5.00002 10.547V10.548ZM13 20V15C13 14.7348 12.8947 14.4804 12.7071 14.2929C12.5196 14.1054 12.2652 14 12 14C11.7348 14 11.4804 14.1054 11.2929 14.2929C11.1054 14.4804 11 14.7348 11 15V20H13Z" fill="#A8614D"/>
</svg>
