<svg width="48" height="96" viewBox="0 0 48 96" fill="none" xmlns="http://www.w3.org/2000/svg">
<path fill-rule="evenodd" clip-rule="evenodd" d="M18 14C16.9391 14 15.9217 14.4214 15.1716 15.1716C14.4214 15.9217 14 16.9391 14 18V30C14 31.0609 14.4214 32.0783 15.1716 32.8284C15.9217 33.5786 16.9391 34 18 34H30C31.0609 34 32.0783 33.5786 32.8284 32.8284C33.5786 32.0783 34 31.0609 34 30V18C34 16.9391 33.5786 15.9217 32.8284 15.1716C32.0783 14.4214 31.0609 14 30 14H18ZM16 18C16 17.4696 16.2107 16.9609 16.5858 16.5858C16.9609 16.2107 17.4696 16 18 16H30C30.5304 16 31.0391 16.2107 31.4142 16.5858C31.7893 16.9609 32 17.4696 32 18V30C32 30.5304 31.7893 31.0391 31.4142 31.4142C31.0391 31.7893 30.5304 32 30 32H18C17.4696 32 16.9609 31.7893 16.5858 31.4142C16.2107 31.0391 16 30.5304 16 30V18ZM21 23C21 22.7348 20.8946 22.4804 20.7071 22.2929C20.5196 22.1054 20.2652 22 20 22C19.7348 22 19.4804 22.1054 19.2929 22.2929C19.1054 22.4804 19 22.7348 19 23V29C19 29.2652 19.1054 29.5196 19.2929 29.7071C19.4804 29.8946 19.7348 30 20 30C20.2652 30 20.5196 29.8946 20.7071 29.7071C20.8946 29.5196 21 29.2652 21 29V23ZM21.5 19.5C21.5 19.8978 21.342 20.2794 21.0607 20.5607C20.7794 20.842 20.3978 21 20 21C19.6022 21 19.2206 20.842 18.9393 20.5607C18.658 20.2794 18.5 19.8978 18.5 19.5C18.5 19.1022 18.658 18.7206 18.9393 18.4393C19.2206 18.158 19.6022 18 20 18C20.3978 18 20.7794 18.158 21.0607 18.4393C21.342 18.7206 21.5 19.1022 21.5 19.5V19.5ZM24 22C24.34 22 24.64 22.17 24.82 22.428C25.3354 22.1471 25.913 21.9999 26.5 22C28.66 22 30 23.926 30 25.571V29C30 29.2652 29.8946 29.5196 29.7071 29.7071C29.5196 29.8946 29.2652 30 29 30C28.7348 30 28.4804 29.8946 28.2929 29.7071C28.1054 29.5196 28 29.2652 28 29V25.57C28 24.802 27.34 23.999 26.5 23.999C25.976 23.999 25.397 24.284 25 24.962V29C25 29.2652 24.8946 29.5196 24.7071 29.7071C24.5196 29.8946 24.2652 30 24 30C23.7348 30 23.4804 29.8946 23.2929 29.7071C23.1054 29.5196 23 29.2652 23 29V23C23 22.7348 23.1054 22.4804 23.2929 22.2929C23.4804 22.1054 23.7348 22 24 22V22Z" fill="#50ACAF"/>
<path fill-rule="evenodd" clip-rule="evenodd" d="M18 61.9988C16.9391 61.9988 15.9217 62.4202 15.1716 63.1704C14.4214 63.9205 14 64.9379 14 65.9988V77.9988C14 79.0596 14.4214 80.0771 15.1716 80.8272C15.9217 81.5774 16.9391 81.9988 18 81.9988H30C31.0609 81.9988 32.0783 81.5774 32.8284 80.8272C33.5786 80.0771 34 79.0596 34 77.9988V65.9988C34 64.9379 33.5786 63.9205 32.8284 63.1704C32.0783 62.4202 31.0609 61.9988 30 61.9988H18ZM16 65.9988C16 65.4683 16.2107 64.9596 16.5858 64.5846C16.9609 64.2095 17.4696 63.9988 18 63.9988H30C30.5304 63.9988 31.0391 64.2095 31.4142 64.5846C31.7893 64.9596 32 65.4683 32 65.9988V77.9988C32 78.5292 31.7893 79.0379 31.4142 79.413C31.0391 79.7881 30.5304 79.9988 30 79.9988H18C17.4696 79.9988 16.9609 79.7881 16.5858 79.413C16.2107 79.0379 16 78.5292 16 77.9988V65.9988ZM21 70.9988C21 70.7336 20.8946 70.4792 20.7071 70.2917C20.5196 70.1041 20.2652 69.9988 20 69.9988C19.7348 69.9988 19.4804 70.1041 19.2929 70.2917C19.1054 70.4792 19 70.7336 19 70.9988V76.9988C19 77.264 19.1054 77.5184 19.2929 77.7059C19.4804 77.8934 19.7348 77.9988 20 77.9988C20.2652 77.9988 20.5196 77.8934 20.7071 77.7059C20.8946 77.5184 21 77.264 21 76.9988V70.9988ZM21.5 67.4988C21.5 67.8966 21.342 68.2781 21.0607 68.5594C20.7794 68.8407 20.3978 68.9988 20 68.9988C19.6022 68.9988 19.2206 68.8407 18.9393 68.5594C18.658 68.2781 18.5 67.8966 18.5 67.4988C18.5 67.101 18.658 66.7194 18.9393 66.4381C19.2206 66.1568 19.6022 65.9988 20 65.9988C20.3978 65.9988 20.7794 66.1568 21.0607 66.4381C21.342 66.7194 21.5 67.101 21.5 67.4988V67.4988ZM24 69.9988C24.34 69.9988 24.64 70.1688 24.82 70.4268C25.3354 70.1459 25.913 69.9987 26.5 69.9988C28.66 69.9988 30 71.9248 30 73.5698V76.9988C30 77.264 29.8946 77.5184 29.7071 77.7059C29.5196 77.8934 29.2652 77.9988 29 77.9988C28.7348 77.9988 28.4804 77.8934 28.2929 77.7059C28.1054 77.5184 28 77.264 28 76.9988V73.5688C28 72.8008 27.34 71.9978 26.5 71.9978C25.976 71.9978 25.397 72.2828 25 72.9608V76.9988C25 77.264 24.8946 77.5184 24.7071 77.7059C24.5196 77.8934 24.2652 77.9988 24 77.9988C23.7348 77.9988 23.4804 77.8934 23.2929 77.7059C23.1054 77.5184 23 77.264 23 76.9988V70.9988C23 70.7336 23.1054 70.4792 23.2929 70.2917C23.4804 70.1041 23.7348 69.9988 24 69.9988V69.9988Z" fill="#2D658C"/>
</svg>
