<svg width="24" height="24" viewBox="0 0 24 24" fill="none" xmlns="http://www.w3.org/2000/svg">
<path fill-rule="evenodd" clip-rule="evenodd" d="M11.12 1.02099C12.109 1.00699 12.96 1.54299 13.71 2.29199L14.97 3.55299C15.2946 3.06848 15.7226 2.66192 16.2231 2.36256C16.7236 2.06321 17.2842 1.87848 17.8647 1.82168C18.4451 1.76488 19.0309 1.83741 19.58 2.03406C20.129 2.2307 20.6277 2.54658 21.04 2.95897C21.4524 3.37135 21.7683 3.87 21.965 4.41905C22.1616 4.9681 22.2341 5.55391 22.1773 6.13434C22.1205 6.71477 21.9358 7.2754 21.6364 7.77591C21.3371 8.27642 20.9305 8.70437 20.446 9.02899L21.707 10.289L21.708 10.291C22.456 11.041 22.993 11.891 22.978 12.879C22.964 13.86 22.41 14.679 21.706 15.379L21.704 15.38L20.429 16.656C19.952 17.133 19.328 17.082 18.951 16.923C18.578 16.766 18.181 16.404 18.09 15.851C18.0315 15.4979 17.8769 15.1678 17.643 14.8969C17.4091 14.6259 17.1051 14.4247 16.7643 14.3153C16.4235 14.2059 16.0592 14.1926 15.7113 14.2768C15.3635 14.3609 15.0455 14.5394 14.7925 14.7924C14.5394 15.0455 14.361 15.3634 14.2768 15.7113C14.1926 16.0592 14.206 16.4235 14.3154 16.7643C14.4248 17.105 14.626 17.4091 14.8969 17.6429C15.1678 17.8768 15.4979 18.0315 15.851 18.09C16.404 18.18 16.766 18.578 16.924 18.95C17.083 19.328 17.134 19.952 16.656 20.428L15.377 21.708L15.376 21.709C14.678 22.412 13.859 22.965 12.879 22.979C11.892 22.994 11.043 22.459 10.294 21.711H10.293L9.03002 20.446C8.7054 20.9305 8.27745 21.3371 7.77694 21.6364C7.27643 21.9358 6.7158 22.1205 6.13537 22.1773C5.55494 22.2341 4.96913 22.1616 4.42008 21.9649C3.87103 21.7683 3.37238 21.4524 2.96 21.04C2.54761 20.6276 2.23173 20.129 2.03509 19.5799C1.83844 19.0309 1.76591 18.4451 1.82271 17.8646C1.87951 17.2842 2.06424 16.7236 2.3636 16.2231C2.66295 15.7226 3.06951 15.2946 3.55402 14.97L2.29302 13.71V13.708C1.54302 12.958 1.00702 12.108 1.02102 11.12C1.03602 10.139 1.59102 9.31999 2.29402 8.61999L2.29602 8.61899L3.57202 7.34299C4.04802 6.86599 4.67202 6.91599 5.04902 7.07499C5.42202 7.23299 5.82002 7.59499 5.91102 8.14799C5.96933 8.50116 6.12387 8.83142 6.35765 9.10248C6.59144 9.37354 6.89543 9.5749 7.23621 9.68444C7.57699 9.79398 7.94137 9.80745 8.28931 9.72338C8.63725 9.63931 8.95528 9.46094 9.20845 9.20789C9.46161 8.95483 9.64012 8.63689 9.72435 8.28899C9.80858 7.94108 9.79527 7.5767 9.68588 7.23587C9.5765 6.89504 9.37527 6.59096 9.10431 6.35705C8.83336 6.12314 8.50317 5.96845 8.15002 5.90999C7.59602 5.81999 7.23402 5.42199 7.07702 5.04899C6.91702 4.67199 6.86702 4.04899 7.34402 3.57099L8.62002 2.29599L8.62102 2.29399C9.32102 1.58999 10.14 1.03599 11.121 1.02099H11.12ZM11.15 3.02099C10.946 3.02399 10.6 3.13899 10.04 3.70399L10.037 3.70699L9.49302 4.24999C10.0688 4.51763 10.5715 4.92022 10.9584 5.4236C11.3454 5.92697 11.6052 6.51626 11.7158 7.14147C11.8264 7.76668 11.7846 8.40934 11.5939 9.01493C11.4031 9.62052 11.0691 10.1712 10.6201 10.6201C10.1712 11.0691 9.62055 11.4031 9.01496 11.5938C8.40937 11.7846 7.76671 11.8264 7.1415 11.7158C6.51629 11.6052 5.927 11.3454 5.42363 10.9584C4.92026 10.5714 4.51766 10.0687 4.25002 9.49299L3.70702 10.037L3.70402 10.039C3.13902 10.6 3.02402 10.945 3.02102 11.15C3.01802 11.348 3.11702 11.704 3.70802 12.297L6.03802 14.627C6.16933 14.7583 6.26147 14.9236 6.30411 15.1044C6.34675 15.2852 6.33821 15.4742 6.27945 15.6504C6.22069 15.8266 6.11403 15.9829 5.97142 16.1019C5.8288 16.2209 5.65588 16.2978 5.47202 16.324C5.11423 16.3754 4.77781 16.5253 4.50043 16.7571C4.22305 16.9889 4.01565 17.2933 3.90148 17.6362C3.7873 17.9792 3.77085 18.3471 3.85396 18.6989C3.93707 19.0507 4.11647 19.3724 4.37206 19.628C4.62765 19.8835 4.94934 20.0629 5.30111 20.146C5.65289 20.2292 6.02085 20.2127 6.3638 20.0985C6.70676 19.9844 7.01116 19.777 7.24291 19.4996C7.47467 19.2222 7.62464 18.8858 7.67602 18.528C7.70224 18.3441 7.77915 18.1712 7.89812 18.0286C8.01709 17.886 8.17343 17.7793 8.34961 17.7206C8.52579 17.6618 8.71485 17.6533 8.89561 17.6959C9.07637 17.7385 9.24168 17.8307 9.37302 17.962L11.706 20.295L11.707 20.296C12.297 20.885 12.653 20.983 12.85 20.98C13.054 20.977 13.399 20.862 13.957 20.299L13.96 20.296L14.507 19.749C13.9313 19.4813 13.4286 19.0788 13.0416 18.5754C12.6547 18.072 12.3948 17.4827 12.2842 16.8575C12.1736 16.2323 12.2154 15.5896 12.4062 14.984C12.5969 14.3785 12.9309 13.8278 13.3799 13.3789C13.8288 12.9299 14.3795 12.5959 14.9851 12.4051C15.5907 12.2144 16.2333 12.1726 16.8585 12.2832C17.4837 12.3938 18.073 12.6536 18.5764 13.0406C19.0798 13.4276 19.4824 13.9302 19.75 14.506L20.293 13.963L20.296 13.961C20.861 13.4 20.976 13.054 20.979 12.85C20.982 12.652 20.884 12.296 20.293 11.704V11.703L17.962 9.37299C17.8307 9.24165 17.7386 9.07634 17.6959 8.89558C17.6533 8.71482 17.6618 8.52576 17.7206 8.34958C17.7793 8.1734 17.886 8.01706 18.0286 7.89809C18.1712 7.77912 18.3442 7.70221 18.528 7.67599C18.8858 7.62461 19.2222 7.47464 19.4996 7.24288C19.777 7.01113 19.9844 6.70673 20.0986 6.36377C20.2127 6.02082 20.2292 5.65286 20.1461 5.30108C20.063 4.94931 19.8836 4.62761 19.628 4.37202C19.3724 4.11643 19.0507 3.93704 18.6989 3.85393C18.3472 3.77082 17.9792 3.78727 17.6362 3.90145C17.2933 4.01562 16.9889 4.22302 16.7571 4.5004C16.5254 4.77778 16.3754 5.1142 16.324 5.47199C16.2978 5.65585 16.2209 5.82877 16.1019 5.97139C15.9829 6.114 15.8266 6.22066 15.6504 6.27942C15.4743 6.33818 15.2852 6.34672 15.1044 6.30408C14.9237 6.26144 14.7584 6.1693 14.627 6.03799L12.297 3.70799C11.704 3.11599 11.347 3.01799 11.15 3.02099Z" fill="#A8614D"/>
</svg>
