<svg width="48" height="96" viewBox="0 0 48 96" fill="none" xmlns="http://www.w3.org/2000/svg">
<path fill-rule="evenodd" clip-rule="evenodd" d="M26.8489 17.6583C26.3921 17.6581 25.9409 17.7593 25.5279 17.9547C25.115 18.1501 24.7505 18.4347 24.4609 18.788C24.1713 19.1414 23.9638 19.5546 23.8533 19.9979C23.7428 20.4412 23.7321 20.9035 23.8219 21.3515C23.8529 21.5067 23.8465 21.667 23.8035 21.8193C23.7604 21.9716 23.6817 22.1114 23.5741 22.2274C23.4664 22.3434 23.3327 22.4322 23.1841 22.4864C23.0354 22.5407 22.876 22.5589 22.7189 22.5395C20.5687 22.2754 18.5417 21.3914 16.8849 19.9954C16.9159 20.5974 17.1249 21.2375 17.5779 21.9075L18.2569 22.9115L17.1419 23.3866L16.9269 23.4786C17.0869 23.6616 17.2789 23.8486 17.4939 24.0336C17.7814 24.2796 18.0854 24.5055 18.4039 24.7096L18.4149 24.7166H18.4159L19.9639 25.6557L18.3439 26.4657C18.2639 26.5057 18.1839 26.5417 18.1039 26.5737C18.4523 26.8632 18.836 27.1071 19.2459 27.2998L20.6359 27.9568L19.4719 28.9608C18.8369 29.5089 18.1979 29.9179 17.3689 30.1339C18.6404 30.8112 20.0594 31.164 21.4999 31.1609C26.3059 31.1609 30.1759 27.3258 30.1759 22.6265V22.1065L30.6009 21.8075C31.2649 21.3415 31.7339 20.7114 32.0699 19.9904H29.9099L29.6379 19.4204C29.3875 18.893 28.9926 18.4475 28.4991 18.1356C28.0056 17.8237 27.4337 17.6582 26.8499 17.6583H26.8489ZM15.5689 24.9586C15.4746 25.0667 15.4046 25.1938 15.3637 25.3314C15.3228 25.4689 15.312 25.6136 15.3319 25.7557C15.4449 26.5567 15.9239 27.2467 16.4539 27.7738C16.5979 27.9168 16.7519 28.0538 16.9139 28.1848L16.8389 28.2048C16.3579 28.3248 15.7089 28.3498 14.6279 28.2448C14.4238 28.2248 14.2184 28.268 14.0397 28.3686C13.861 28.4693 13.7175 28.6224 13.6287 28.8074C13.54 28.9923 13.5102 29.2001 13.5435 29.4025C13.5769 29.6049 13.6716 29.7921 13.8149 29.9389C14.8157 30.9619 16.0112 31.774 17.331 32.3274C18.6507 32.8808 20.0679 33.1643 21.4989 33.161C27.2119 33.161 31.8979 28.7248 32.1629 23.1265C33.4529 22.0435 34.0979 20.5764 34.4459 19.2434C34.4846 19.0954 34.4889 18.9405 34.4583 18.7907C34.4278 18.6408 34.3633 18.5 34.2698 18.379C34.1763 18.2579 34.0563 18.16 33.919 18.0926C33.7818 18.0252 33.6309 17.9902 33.4779 17.9903H31.1249C30.5494 17.0966 29.7083 16.4057 28.7198 16.0146C27.7314 15.6236 26.6453 15.5521 25.6141 15.8102C24.5829 16.0683 23.6585 16.6431 22.9708 17.4536C22.2831 18.2642 21.8666 19.2699 21.7799 20.3294C19.9366 19.8495 18.2873 18.8101 17.0589 17.3543C16.9502 17.2256 16.8106 17.1266 16.6534 17.0663C16.4961 17.006 16.3261 16.9864 16.1592 17.0093C15.9923 17.0323 15.8339 17.097 15.6988 17.1975C15.5636 17.298 15.456 17.4311 15.3859 17.5843C14.7799 18.9063 14.6639 20.4304 15.3399 21.9805L15.1059 22.0805C14.882 22.1759 14.7006 22.3497 14.5956 22.5694C14.4907 22.789 14.4695 23.0394 14.5359 23.2736C14.7219 23.9256 15.1399 24.5016 15.5679 24.9586H15.5689Z" fill="#50ACAF"/>
<path fill-rule="evenodd" clip-rule="evenodd" d="M26.8489 65.6583C26.3921 65.6581 25.9409 65.7593 25.5279 65.9547C25.115 66.1501 24.7505 66.4347 24.4609 66.788C24.1713 67.1414 23.9638 67.5546 23.8533 67.9979C23.7428 68.4412 23.7321 68.9035 23.8219 69.3515C23.8529 69.5067 23.8465 69.667 23.8035 69.8193C23.7604 69.9716 23.6817 70.1114 23.5741 70.2274C23.4664 70.3434 23.3327 70.4322 23.1841 70.4864C23.0354 70.5407 22.876 70.5589 22.7189 70.5395C20.5687 70.2754 18.5417 69.3914 16.8849 67.9954C16.9159 68.5974 17.1249 69.2375 17.5779 69.9075L18.2569 70.9115L17.1419 71.3866L16.9269 71.4786C17.0869 71.6616 17.2789 71.8486 17.4939 72.0336C17.7814 72.2796 18.0854 72.5055 18.4039 72.7096L18.4149 72.7166H18.4159L19.9639 73.6557L18.3439 74.4657C18.2639 74.5057 18.1839 74.5417 18.1039 74.5737C18.4523 74.8632 18.836 75.1071 19.2459 75.2998L20.6359 75.9568L19.4719 76.9608C18.8369 77.5089 18.1979 77.9179 17.3689 78.1339C18.6404 78.8112 20.0594 79.164 21.4999 79.1609C26.3059 79.1609 30.1759 75.3258 30.1759 70.6265V70.1065L30.6009 69.8075C31.2649 69.3415 31.7339 68.7114 32.0699 67.9904H29.9099L29.6379 67.4204C29.3875 66.893 28.9926 66.4475 28.4991 66.1356C28.0056 65.8237 27.4337 65.6582 26.8499 65.6583H26.8489ZM15.5689 72.9586C15.4746 73.0667 15.4046 73.1938 15.3637 73.3314C15.3228 73.4689 15.312 73.6136 15.3319 73.7557C15.4449 74.5567 15.9239 75.2467 16.4539 75.7738C16.5979 75.9168 16.7519 76.0538 16.9139 76.1848L16.8389 76.2048C16.3579 76.3248 15.7089 76.3498 14.6279 76.2448C14.4238 76.2248 14.2184 76.268 14.0397 76.3686C13.861 76.4693 13.7175 76.6224 13.6287 76.8074C13.54 76.9923 13.5102 77.2001 13.5435 77.4025C13.5769 77.6049 13.6716 77.7921 13.8149 77.9389C14.8157 78.9619 16.0112 79.774 17.331 80.3274C18.6507 80.8808 20.0679 81.1643 21.4989 81.161C27.2119 81.161 31.8979 76.7248 32.1629 71.1265C33.4529 70.0435 34.0979 68.5764 34.4459 67.2434C34.4846 67.0954 34.4889 66.9405 34.4583 66.7907C34.4278 66.6408 34.3633 66.5 34.2698 66.379C34.1763 66.2579 34.0563 66.16 33.919 66.0926C33.7818 66.0252 33.6309 65.9902 33.4779 65.9903H31.1249C30.5494 65.0966 29.7083 64.4057 28.7198 64.0146C27.7314 63.6236 26.6453 63.5521 25.6141 63.8102C24.5829 64.0683 23.6585 64.6431 22.9708 65.4536C22.2831 66.2642 21.8666 67.2699 21.7799 68.3294C19.9366 67.8495 18.2873 66.8101 17.0589 65.3543C16.9502 65.2256 16.8106 65.1266 16.6534 65.0663C16.4961 65.006 16.3261 64.9864 16.1592 65.0093C15.9923 65.0323 15.8339 65.097 15.6988 65.1975C15.5636 65.298 15.456 65.4311 15.3859 65.5843C14.7799 66.9063 14.6639 68.4304 15.3399 69.9805L15.1059 70.0805C14.882 70.1759 14.7006 70.3497 14.5956 70.5694C14.4907 70.789 14.4695 71.0394 14.5359 71.2736C14.7219 71.9256 15.1399 72.5016 15.5679 72.9586H15.5689Z" fill="#2D658C"/>
</svg>
