<svg width="24" height="48" viewBox="0 0 24 48" fill="none" xmlns="http://www.w3.org/2000/svg">
<path fill-rule="evenodd" clip-rule="evenodd" d="M7.99994 9.99999C7.99994 8.93913 8.42137 7.92171 9.17152 7.17157C9.92166 6.42142 10.9391 5.99999 11.9999 5.99999C13.0608 5.99999 14.0782 6.42142 14.8284 7.17157C15.5785 7.92171 15.9999 8.93913 15.9999 9.99999V11H16.9999C17.4596 11 17.9147 11.0905 18.3393 11.2664C18.764 11.4423 19.1498 11.7001 19.4748 12.0251C19.7998 12.3501 20.0576 12.736 20.2335 13.1606C20.4094 13.5852 20.4999 14.0404 20.4999 14.5C20.4999 14.9596 20.4094 15.4147 20.2335 15.8394C20.0576 16.264 19.7998 16.6499 19.4748 16.9749C19.1498 17.2999 18.764 17.5577 18.3393 17.7336C17.9147 17.9095 17.4596 18 16.9999 18H16.8999C16.6347 18 16.3804 18.1054 16.1928 18.2929C16.0053 18.4804 15.8999 18.7348 15.8999 19C15.8999 19.2652 16.0053 19.5196 16.1928 19.7071C16.3804 19.8946 16.6347 20 16.8999 20H16.9999C18.3791 20.0018 19.7085 19.4853 20.7248 18.5531C21.7412 17.6208 22.3701 16.3408 22.4871 14.9666C22.6042 13.5925 22.2006 12.2245 21.3566 11.1339C20.5125 10.0432 19.2895 9.30943 17.9299 9.07799C17.7103 7.66288 16.9919 6.37296 15.9044 5.44123C14.8169 4.50949 13.432 3.99738 11.9999 3.99738C10.5679 3.99738 9.18304 4.50949 8.09554 5.44123C7.00804 6.37296 6.28958 7.66288 6.06994 9.07799C4.71483 9.31457 3.49749 10.0502 2.65788 11.1399C1.81827 12.2295 1.4173 13.5942 1.53401 14.9648C1.65072 16.3355 2.27664 17.6127 3.28839 18.5447C4.30015 19.4767 5.62434 19.9959 6.99994 20H7.09994C7.36516 20 7.61952 19.8946 7.80705 19.7071C7.99459 19.5196 8.09995 19.2652 8.09995 19C8.09995 18.7348 7.99459 18.4804 7.80705 18.2929C7.61952 18.1054 7.36516 18 7.09994 18H6.99994C6.54032 18 6.08519 17.9095 5.66055 17.7336C5.23591 17.5577 4.85008 17.2999 4.52507 16.9749C4.20007 16.6499 3.94226 16.264 3.76637 15.8394C3.59047 15.4147 3.49994 14.9596 3.49994 14.5C3.49994 14.0404 3.59047 13.5852 3.76637 13.1606C3.94226 12.736 4.20007 12.3501 4.52507 12.0251C4.85008 11.7001 5.23591 11.4423 5.66055 11.2664C6.08519 11.0905 6.54032 11 6.99994 11H7.99994V9.99999ZM12.9999 11C12.9999 10.7348 12.8946 10.4804 12.7071 10.2929C12.5195 10.1054 12.2652 9.99999 11.9999 9.99999C11.7347 9.99999 11.4804 10.1054 11.2928 10.2929C11.1053 10.4804 10.9999 10.7348 10.9999 11V16.586L9.70694 15.293C9.51834 15.1108 9.26574 15.01 9.00354 15.0123C8.74135 15.0146 8.49053 15.1198 8.30513 15.3052C8.11972 15.4906 8.01455 15.7414 8.01227 16.0036C8.00999 16.2658 8.11079 16.5184 8.29294 16.707L11.2929 19.707C11.4805 19.8945 11.7348 19.9998 11.9999 19.9998C12.2651 19.9998 12.5194 19.8945 12.7069 19.707L15.7069 16.707C15.8891 16.5184 15.9899 16.2658 15.9876 16.0036C15.9853 15.7414 15.8802 15.4906 15.6948 15.3052C15.5094 15.1198 15.2585 15.0146 14.9963 15.0123C14.7341 15.01 14.4815 15.1108 14.2929 15.293L12.9999 16.586V11Z" fill="#50ACAF"/>
<path fill-rule="evenodd" clip-rule="evenodd" d="M7.99994 34C7.99994 32.9391 8.42137 31.9217 9.17152 31.1716C9.92166 30.4214 10.9391 30 11.9999 30C13.0608 30 14.0782 30.4214 14.8284 31.1716C15.5785 31.9217 15.9999 32.9391 15.9999 34V35H16.9999C17.4596 35 17.9147 35.0905 18.3393 35.2664C18.764 35.4423 19.1498 35.7001 19.4748 36.0251C19.7998 36.3501 20.0576 36.736 20.2335 37.1606C20.4094 37.5852 20.4999 38.0404 20.4999 38.5C20.4999 38.9596 20.4094 39.4147 20.2335 39.8394C20.0576 40.264 19.7998 40.6499 19.4748 40.9749C19.1498 41.2999 18.764 41.5577 18.3393 41.7336C17.9147 41.9095 17.4596 42 16.9999 42H16.8999C16.6347 42 16.3804 42.1054 16.1928 42.2929C16.0053 42.4804 15.8999 42.7348 15.8999 43C15.8999 43.2652 16.0053 43.5196 16.1928 43.7071C16.3804 43.8946 16.6347 44 16.8999 44H16.9999C18.3791 44.0018 19.7085 43.4853 20.7248 42.5531C21.7412 41.6208 22.3701 40.3408 22.4871 38.9666C22.6042 37.5925 22.2006 36.2245 21.3566 35.1339C20.5125 34.0432 19.2895 33.3094 17.9299 33.078C17.7103 31.6629 16.9919 30.373 15.9044 29.4412C14.8169 28.5095 13.432 27.9974 11.9999 27.9974C10.5679 27.9974 9.18304 28.5095 8.09554 29.4412C7.00804 30.373 6.28958 31.6629 6.06994 33.078C4.71483 33.3146 3.49749 34.0502 2.65788 35.1399C1.81827 36.2295 1.4173 37.5942 1.53401 38.9648C1.65072 40.3355 2.27664 41.6127 3.28839 42.5447C4.30015 43.4767 5.62434 43.9959 6.99994 44H7.09994C7.36516 44 7.61952 43.8946 7.80705 43.7071C7.99459 43.5196 8.09995 43.2652 8.09995 43C8.09995 42.7348 7.99459 42.4804 7.80705 42.2929C7.61952 42.1054 7.36516 42 7.09994 42H6.99994C6.54032 42 6.08519 41.9095 5.66055 41.7336C5.23591 41.5577 4.85008 41.2999 4.52507 40.9749C4.20007 40.6499 3.94226 40.264 3.76637 39.8394C3.59047 39.4147 3.49994 38.9596 3.49994 38.5C3.49994 38.0404 3.59047 37.5852 3.76637 37.1606C3.94226 36.736 4.20007 36.3501 4.52507 36.0251C4.85008 35.7001 5.23591 35.4423 5.66055 35.2664C6.08519 35.0905 6.54032 35 6.99994 35H7.99994V34ZM12.9999 35C12.9999 34.7348 12.8946 34.4804 12.7071 34.2929C12.5195 34.1054 12.2652 34 11.9999 34C11.7347 34 11.4804 34.1054 11.2928 34.2929C11.1053 34.4804 10.9999 34.7348 10.9999 35V40.586L9.70694 39.293C9.51834 39.1108 9.26574 39.01 9.00354 39.0123C8.74135 39.0146 8.49053 39.1198 8.30513 39.3052C8.11972 39.4906 8.01455 39.7414 8.01227 40.0036C8.00999 40.2658 8.11079 40.5184 8.29294 40.707L11.2929 43.707C11.4805 43.8945 11.7348 43.9998 11.9999 43.9998C12.2651 43.9998 12.5194 43.8945 12.7069 43.707L15.7069 40.707C15.8891 40.5184 15.9899 40.2658 15.9876 40.0036C15.9853 39.7414 15.8802 39.4906 15.6948 39.3052C15.5094 39.1198 15.2585 39.0146 14.9963 39.0123C14.7341 39.01 14.4815 39.1108 14.2929 39.293L12.9999 40.586V35Z" fill="#2D658C"/>
</svg>
