<svg width="24" height="48" viewBox="0 0 24 48" fill="none" xmlns="http://www.w3.org/2000/svg">
<g clip-path="url(#clip0_401_1166)">
<path fill-rule="evenodd" clip-rule="evenodd" d="M8.03125 0C5.82325 0 4.03125 1.792 4.03125 4C4.03125 6.208 5.82325 8 8.03125 8C5.82325 8 4.03125 9.792 4.03125 12C4.03125 14.208 5.82325 16 8.03125 16C5.82325 16 4.03125 17.792 4.03125 20C4.03125 22.208 5.82325 24 8.03125 24C10.2392 24 12.0313 22.208 12.0313 20L12.0313 12C12.0313 14.208 13.8233 16 16.0313 16C18.2393 16 20.0313 14.208 20.0313 12C20.0313 9.792 18.2393 8 16.0313 8C18.2393 8 20.0313 6.208 20.0313 4C20.0313 1.792 18.2393 0 16.0313 0H8.03125ZM16.0313 8H12.0313L12.0313 12C12.0313 9.792 13.8233 8 16.0313 8Z" fill="#50ACAF"/>
</g>
<g clip-path="url(#clip1_401_1166)">
<path fill-rule="evenodd" clip-rule="evenodd" d="M8.03125 24C5.82325 24 4.03125 25.792 4.03125 28C4.03125 30.208 5.82325 32 8.03125 32C5.82325 32 4.03125 33.792 4.03125 36C4.03125 38.208 5.82325 40 8.03125 40C5.82325 40 4.03125 41.792 4.03125 44C4.03125 46.208 5.82325 48 8.03125 48C10.2392 48 12.0313 46.208 12.0313 44L12.0313 36C12.0313 38.208 13.8233 40 16.0313 40C18.2393 40 20.0313 38.208 20.0313 36C20.0313 33.792 18.2393 32 16.0313 32C18.2393 32 20.0313 30.208 20.0313 28C20.0313 25.792 18.2393 24 16.0313 24H8.03125ZM16.0313 32H12.0313L12.0313 36C12.0313 33.792 13.8233 32 16.0313 32Z" fill="#2D658C"/>
</g>
<defs>
<clipPath id="clip0_401_1166">
<rect width="24" height="24" fill="white"/>
</clipPath>
<clipPath id="clip1_401_1166">
<rect width="24" height="24" fill="white" transform="translate(0 24)"/>
</clipPath>
</defs>
</svg>
