<svg width="117" height="50" viewBox="0 0 117 50" fill="none" xmlns="http://www.w3.org/2000/svg">
<rect x="2.78564" y="44.5205" width="110.732" height="5.47945" fill="#EFC043"/>
<path d="M2.95286 43V2.05H9.72214V37.4286H19.3607V43H2.95286Z" fill="#2D658C"/>
<path d="M30.2806 43.4457C27.5878 43.4457 25.4056 42.6286 23.7342 40.9943C22.0813 39.3414 21.2549 37.1036 21.2549 34.2807V10.7693C21.2178 7.94643 22.0349 5.71786 23.7063 4.08357C25.3963 2.43071 27.5878 1.60429 30.2806 1.60429C32.992 1.60429 35.1928 2.43071 36.8828 4.08357C38.5913 5.71786 39.4456 7.94643 39.4456 10.7693V34.2807C39.4828 37.085 38.6378 39.3136 36.9106 40.9664C35.202 42.6193 32.992 43.4457 30.2806 43.4457ZM30.2528 37.5957C31.0885 37.5957 31.7292 37.3079 32.1749 36.7321C32.6206 36.1564 32.8435 35.3393 32.8435 34.2807V10.7693C32.8435 9.71071 32.6113 8.89357 32.147 8.31786C31.7013 7.74214 31.0699 7.45429 30.2528 7.45429C29.4542 7.45429 28.8228 7.74214 28.3585 8.31786C27.9128 8.875 27.6899 9.69214 27.6899 10.7693V34.2807C27.6899 35.3393 27.9128 36.1564 28.3585 36.7321C28.8228 37.3079 29.4542 37.5957 30.2528 37.5957ZM52.794 43.4457C51.0111 43.4457 49.4883 43.065 48.2254 42.3036C46.9811 41.5236 46.0247 40.4464 45.3561 39.0721C44.6875 37.6979 44.3533 36.1007 44.3533 34.2807V10.7693C44.4461 7.90928 45.3375 5.67143 47.0275 4.05571C48.7361 2.42143 50.9647 1.60429 53.7133 1.60429C56.4433 1.60429 58.6625 2.42143 60.3711 4.05571C62.0797 5.69 62.934 7.92786 62.934 10.7693V16.7586H56.304V10.7693C56.304 9.71071 56.0718 8.89357 55.6075 8.31786C55.1618 7.74214 54.5304 7.45429 53.7133 7.45429C52.8775 7.45429 52.2275 7.73286 51.7633 8.29C51.3175 8.84714 51.0947 9.67357 51.0947 10.7693V34.7821C51.0947 35.8036 51.3175 36.6114 51.7633 37.2057C52.2275 37.8 52.859 38.0971 53.6575 38.0971C54.419 38.0971 55.0133 37.8 55.4404 37.2057C55.8861 36.5929 56.109 35.785 56.109 34.7821V27.6786H52.989V22.6086H63.0454V43H58.8668L58.0311 40.8271C57.1211 41.8486 56.2947 42.545 55.5518 42.9164C54.809 43.2693 53.8897 43.4457 52.794 43.4457Z" fill="#50ACAF"/>
<path d="M66.4115 43L73.8772 2.05H82.2622L89.7558 43H83.2094L81.8165 34.6429H74.3229L72.9579 43H66.4115ZM75.3815 28.2914H80.7579L78.5851 16.675L78.3344 15.1707H77.8329L77.5822 16.675L75.3815 28.2914ZM92.7378 43V2.05H98.8664L106.054 24.5307L106.806 27.3443H107.279L107.307 24.67V2.05H113.464V43H107.363L100.148 20.6586L99.4235 18.0121H98.9221L98.8942 20.6586V43H92.7378Z" fill="#2D658C"/>
</svg>
