<svg width="24" height="48" viewBox="0 0 24 48" fill="none" xmlns="http://www.w3.org/2000/svg">
<path fill-rule="evenodd" clip-rule="evenodd" d="M24 12C24 18.6274 18.6274 24 12 24C5.37258 24 0 18.6274 0 12C0 5.37258 5.37258 0 12 0C18.6274 0 24 5.37258 24 12ZM10.7233 12.416C11.0265 10.8044 11.297 9.36636 10.804 9.36101C9.55154 9.34759 8.00425 15.706 8.23204 18.4812C8.35454 19.9735 6.025 20.2923 6.00153 18.4206C5.9279 12.5535 8.52703 5.98274 11.1525 6.12743C12.8673 6.22184 12.6899 8.79357 12.6899 8.79357C12.6899 8.79357 14.3942 4.26879 16.6006 4.28576C17.2308 4.29077 17.8608 4.80308 17.9788 5.85066C18.0931 6.86558 17.7265 8.05749 17.3252 9.3618C16.7799 11.1344 16.1707 13.1146 16.6183 15.1403C16.8532 16.2028 14.542 16.8243 14.2873 15.0325C14.0905 13.6478 14.5057 11.8655 14.8344 10.4541C15.1486 9.10492 15.3839 8.09471 14.9303 8.09471C13.6076 8.09471 12.3034 14.2298 12.5424 16.1877C12.6829 17.3394 10.4693 17.9154 10.3018 15.9148C10.2289 15.0444 10.4861 13.677 10.7233 12.416Z" fill="#50ACAF"/>
<path fill-rule="evenodd" clip-rule="evenodd" d="M24 36C24 42.6274 18.6274 48 12 48C5.37258 48 0 42.6274 0 36C0 29.3726 5.37258 24 12 24C18.6274 24 24 29.3726 24 36ZM10.7233 36.416C11.0265 34.8044 11.297 33.3664 10.804 33.361C9.55154 33.3476 8.00425 39.706 8.23204 42.4812C8.35454 43.9735 6.025 44.2923 6.00153 42.4206C5.9279 36.5535 8.52703 29.9827 11.1525 30.1274C12.8673 30.2218 12.6899 32.7936 12.6899 32.7936C12.6899 32.7936 14.3942 28.2688 16.6006 28.2858C17.2308 28.2908 17.8608 28.8031 17.9788 29.8507C18.0931 30.8656 17.7265 32.0575 17.3252 33.3618C16.7799 35.1344 16.1707 37.1146 16.6183 39.1403C16.8532 40.2028 14.542 40.8243 14.2873 39.0325C14.0905 37.6478 14.5057 35.8655 14.8344 34.4541C15.1486 33.1049 15.3839 32.0947 14.9303 32.0947C13.6076 32.0947 12.3034 38.2298 12.5424 40.1877C12.6829 41.3394 10.4693 41.9154 10.3018 39.9148C10.2289 39.0444 10.4861 37.677 10.7233 36.416Z" fill="#2D658C"/>
</svg>
