<svg width="24" height="24" viewBox="0 0 24 24" fill="none" xmlns="http://www.w3.org/2000/svg">
<path fill-rule="evenodd" clip-rule="evenodd" d="M12 7C12.2652 7.00006 12.5195 7.10545 12.707 7.293L19.707 14.293C19.8892 14.4816 19.99 14.7342 19.9877 14.9964C19.9854 15.2586 19.8803 15.5094 19.6949 15.6948C19.5095 15.8802 19.2586 15.9854 18.9964 15.9877C18.7342 15.99 18.4816 15.8892 18.293 15.707L12 9.414L5.70704 15.707C5.51844 15.8892 5.26584 15.99 5.00364 15.9877C4.74144 15.9854 4.49063 15.8802 4.30522 15.6948C4.11981 15.5094 4.01465 15.2586 4.01237 14.9964C4.01009 14.7342 4.11088 14.4816 4.29304 14.293L11.293 7.293C11.4805 7.10545 11.7348 7.00006 12 7V7Z" fill="#FFFAF9"/>
</svg>
