<svg width="48" height="96" viewBox="0 0 48 96" fill="none" xmlns="http://www.w3.org/2000/svg">
<path fill-rule="evenodd" clip-rule="evenodd" d="M14.544 17.168C14.8 16.8079 15.1382 16.514 15.5306 16.3109C15.923 16.1078 16.3582 16.0012 16.8 16H31.2C32.136 16 32.953 16.47 33.456 17.168C33.799 17.646 34 18.235 34 18.867V29.133C34 30.682 32.78 32 31.2 32H16.8C15.22 32 14 30.682 14 29.133V18.867C14 18.235 14.2 17.646 14.544 17.167V17.168ZM16.933 18L23.26 24.965C23.3537 25.0681 23.468 25.1505 23.5954 25.2069C23.7228 25.2633 23.8607 25.2924 24 25.2924C24.1393 25.2924 24.2772 25.2633 24.4046 25.2069C24.532 25.1505 24.6463 25.0681 24.74 24.965L31.067 18H16.933ZM32 19.948L26.22 26.31C25.9388 26.6194 25.5961 26.8665 25.2138 27.0357C24.8315 27.2048 24.418 27.2922 24 27.2922C23.582 27.2922 23.1685 27.2048 22.7862 27.0357C22.4039 26.8665 22.0612 26.6194 21.78 26.31L16 19.948V29.133C16 29.647 16.392 30 16.8 30H31.2C31.608 30 32 29.647 32 29.133V19.948Z" fill="#50ACAF"/>
<path fill-rule="evenodd" clip-rule="evenodd" d="M14.544 65.1668C14.8 64.8067 15.1382 64.5129 15.5306 64.3097C15.923 64.1066 16.3582 64 16.8 63.9988H31.2C32.136 63.9988 32.953 64.4688 33.456 65.1668C33.799 65.6448 34 66.2338 34 66.8658V77.1318C34 78.6808 32.78 79.9988 31.2 79.9988H16.8C15.22 79.9988 14 78.6808 14 77.1318V66.8658C14 66.2338 14.2 65.6448 14.544 65.1658V65.1668ZM16.933 65.9988L23.26 72.9638C23.3537 73.067 23.468 73.1493 23.5954 73.2057C23.7228 73.2621 23.8607 73.2912 24 73.2912C24.1393 73.2912 24.2772 73.2621 24.4046 73.2057C24.532 73.1493 24.6463 73.067 24.74 72.9638L31.067 65.9988H16.933ZM32 67.9468L26.22 74.3088C25.9388 74.6182 25.5961 74.8654 25.2138 75.0345C24.8315 75.2036 24.418 75.291 24 75.291C23.582 75.291 23.1685 75.2036 22.7862 75.0345C22.4039 74.8654 22.0612 74.6182 21.78 74.3088L16 67.9468V77.1318C16 77.6458 16.392 77.9988 16.8 77.9988H31.2C31.608 77.9988 32 77.6458 32 77.1318V67.9468Z" fill="#2D658C"/>
</svg>
