<svg width="24" height="48" viewBox="0 0 24 48" fill="none" xmlns="http://www.w3.org/2000/svg">
<path fill-rule="evenodd" clip-rule="evenodd" d="M10 1C9.73481 1.00006 9.48049 1.10545 9.293 1.293L3.293 7.293C3.10545 7.48049 3.00006 7.73481 3 8V20C3 20.7956 3.31607 21.5587 3.87868 22.1213C4.44129 22.6839 5.20435 23 6 23H7C7.26522 23 7.51957 22.8946 7.70711 22.7071C7.89464 22.5196 8 22.2652 8 22C8 21.7348 7.89464 21.4804 7.70711 21.2929C7.51957 21.1054 7.26522 21 7 21H6C5.73478 21 5.48043 20.8946 5.29289 20.7071C5.10536 20.5196 5 20.2652 5 20V9H10C10.2652 9 10.5196 8.89464 10.7071 8.70711C10.8946 8.51957 11 8.26522 11 8V3H18C18.2652 3 18.5196 3.10536 18.7071 3.29289C18.8946 3.48043 19 3.73478 19 4V9C19 9.26522 19.1054 9.51957 19.2929 9.70711C19.4804 9.89464 19.7348 10 20 10C20.2652 10 20.5196 9.89464 20.7071 9.70711C20.8946 9.51957 21 9.26522 21 9V4C21 3.20435 20.6839 2.44129 20.1213 1.87868C19.5587 1.31607 18.7956 1 18 1H10ZM9 7H6.414L9 4.414V7ZM11 12C10.7348 12 10.4804 12.1054 10.2929 12.2929C10.1054 12.4804 10 12.7348 10 13V21C10 21.2652 10.1054 21.5196 10.2929 21.7071C10.4804 21.8946 10.7348 22 11 22H21C21.2652 22 21.5196 21.8946 21.7071 21.7071C21.8946 21.5196 22 21.2652 22 21V13C22 12.7348 21.8946 12.4804 21.7071 12.2929C21.5196 12.1054 21.2652 12 21 12H11ZM12 16V14H14V16H12ZM16 16V14H20V16H16ZM16 20V18H20V20H16ZM14 18V20H12V18H14Z" fill="#50ACAF"/>
<path fill-rule="evenodd" clip-rule="evenodd" d="M10 25C9.73481 25.0001 9.48049 25.1055 9.293 25.293L3.293 31.293C3.10545 31.4805 3.00006 31.7348 3 32V44C3 44.7956 3.31607 45.5587 3.87868 46.1213C4.44129 46.6839 5.20435 47 6 47H7C7.26522 47 7.51957 46.8946 7.70711 46.7071C7.89464 46.5196 8 46.2652 8 46C8 45.7348 7.89464 45.4804 7.70711 45.2929C7.51957 45.1054 7.26522 45 7 45H6C5.73478 45 5.48043 44.8946 5.29289 44.7071C5.10536 44.5196 5 44.2652 5 44V33H10C10.2652 33 10.5196 32.8946 10.7071 32.7071C10.8946 32.5196 11 32.2652 11 32V27H18C18.2652 27 18.5196 27.1054 18.7071 27.2929C18.8946 27.4804 19 27.7348 19 28V33C19 33.2652 19.1054 33.5196 19.2929 33.7071C19.4804 33.8946 19.7348 34 20 34C20.2652 34 20.5196 33.8946 20.7071 33.7071C20.8946 33.5196 21 33.2652 21 33V28C21 27.2044 20.6839 26.4413 20.1213 25.8787C19.5587 25.3161 18.7956 25 18 25H10ZM9 31H6.414L9 28.414V31ZM11 36C10.7348 36 10.4804 36.1054 10.2929 36.2929C10.1054 36.4804 10 36.7348 10 37V45C10 45.2652 10.1054 45.5196 10.2929 45.7071C10.4804 45.8946 10.7348 46 11 46H21C21.2652 46 21.5196 45.8946 21.7071 45.7071C21.8946 45.5196 22 45.2652 22 45V37C22 36.7348 21.8946 36.4804 21.7071 36.2929C21.5196 36.1054 21.2652 36 21 36H11ZM12 40V38H14V40H12ZM16 40V38H20V40H16ZM16 44V42H20V44H16ZM14 42V44H12V42H14Z" fill="#2D658C"/>
</svg>
