<svg width="24" height="24" viewBox="0 0 24 24" fill="none" xmlns="http://www.w3.org/2000/svg">
<path fill-rule="evenodd" clip-rule="evenodd" d="M1 2C1 1.73478 1.10536 1.48043 1.29289 1.29289C1.48043 1.10536 1.73478 1 2 1H3.015C3.93428 0.999934 4.84457 1.18094 5.69389 1.53268C6.54321 1.88442 7.31494 2.40001 7.965 3.05L10.745 5.831L17.921 3.041C18.4637 2.82995 19.0561 2.78139 19.6259 2.90125C20.1957 3.02111 20.7183 3.3042 21.13 3.716L22.707 5.293C22.8162 5.40214 22.8986 5.53508 22.9478 5.6814C22.9971 5.82773 23.0117 5.98346 22.9907 6.1364C22.9697 6.28935 22.9136 6.43535 22.8267 6.56297C22.7398 6.69059 22.6246 6.79636 22.49 6.872L15.563 10.768L17.895 13.433L20.159 13.11C20.6606 13.0384 21.172 13.1264 21.6208 13.3615C22.0696 13.5967 22.433 13.9672 22.6596 14.4204C22.8861 14.8736 22.9643 15.3866 22.8831 15.8868C22.8019 16.3869 22.5653 16.8488 22.207 17.207L17.207 22.207C16.8488 22.5653 16.3869 22.8019 15.8868 22.8831C15.3866 22.9643 14.8736 22.8861 14.4204 22.6596C13.9672 22.433 13.5967 22.0696 13.3615 21.6208C13.1264 21.172 13.0384 20.6606 13.11 20.159L13.433 17.895L10.768 15.563L6.872 22.49C6.79639 22.6248 6.69058 22.7402 6.56288 22.8272C6.43517 22.9141 6.28904 22.9704 6.13596 22.9914C5.98288 23.0124 5.827 22.9977 5.68057 22.9483C5.53414 22.899 5.40114 22.8164 5.292 22.707L3.717 21.13C3.3052 20.7183 3.02211 20.1957 2.90225 19.6259C2.78239 19.0561 2.83095 18.4637 3.042 17.921L5.832 10.746L3.052 7.964C2.40164 7.3141 1.88569 6.54245 1.5336 5.69312C1.18152 4.84379 1.0002 3.93342 1 3.014V2ZM3 3V3.015C3.00002 4.34083 3.52662 5.61237 4.464 6.55L7.707 9.793C7.84433 9.93025 7.93874 10.1045 7.97869 10.2945C8.01864 10.4845 8.00242 10.6821 7.932 10.863L4.905 18.646C4.83458 18.8269 4.81836 19.0245 4.85831 19.2145C4.89826 19.4045 4.99267 19.5787 5.13 19.716L5.775 20.361L9.628 13.51C9.70094 13.3804 9.80186 13.2687 9.92341 13.1831C10.045 13.0974 10.1841 13.04 10.3306 13.0149C10.4772 12.9898 10.6275 12.9977 10.7706 13.038C10.9138 13.0783 11.0461 13.1501 11.158 13.248L15.158 16.748C15.2833 16.8575 15.3792 16.9965 15.4372 17.1524C15.4952 17.3084 15.5133 17.4763 15.49 17.641L15.09 20.441C15.0774 20.5272 15.0923 20.6151 15.1326 20.6923C15.1728 20.7695 15.2364 20.8321 15.3143 20.8711C15.3922 20.91 15.4803 20.9235 15.5663 20.9095C15.6522 20.8955 15.7316 20.8547 15.793 20.793L20.793 15.793C20.8547 15.7316 20.8955 15.6522 20.9095 15.5663C20.9235 15.4803 20.91 15.3922 20.8711 15.3143C20.8321 15.2364 20.7695 15.1728 20.6923 15.1326C20.6151 15.0923 20.5272 15.0774 20.441 15.09L17.641 15.49C17.4761 15.5135 17.308 15.4954 17.1519 15.4374C16.9958 15.3795 16.8566 15.2834 16.747 15.158L13.247 11.158C13.1491 11.046 13.0774 10.9136 13.0372 10.7705C12.9969 10.6273 12.9891 10.477 13.0143 10.3304C13.0395 10.1838 13.0971 10.0447 13.1828 9.92321C13.2686 9.8017 13.3803 9.70085 13.51 9.628L20.36 5.775L19.716 5.13C19.5787 4.99267 19.4045 4.89826 19.2145 4.85831C19.0245 4.81836 18.8269 4.83458 18.646 4.905L10.862 7.932C10.6811 8.00242 10.4835 8.01864 10.2935 7.97869C10.1035 7.93874 9.92925 7.84433 9.792 7.707L6.55 4.464C5.61237 3.52662 4.34083 3.00002 3.015 3H3Z" fill="#A8614D"/>
</svg>
